<?xml version="1.0" standalone="no"?>
<!DOCTYPE svg PUBLIC "-//W3C//DTD SVG 20010904//EN"
 "http://www.w3.org/TR/2001/REC-SVG-20010904/DTD/svg10.dtd">
<svg version="1.0" xmlns="http://www.w3.org/2000/svg"
 width="500.000000pt" height="500.000000pt" viewBox="0 0 500.000000 500.000000"
 preserveAspectRatio="xMidYMid meet">

<g transform="translate(0.000000,500.000000) scale(0.100000,-0.100000)"
fill="#000000" stroke="none">
<path d="M1320 4624 c-377 -68 -691 -307 -850 -646 -21 -46 -51 -123 -66 -173
-26 -87 -27 -101 -31 -368 -5 -251 -4 -277 11 -271 12 4 16 0 16 -15 0 -28 18
-59 52 -90 16 -14 28 -32 28 -39 0 -20 71 -103 81 -96 5 3 9 2 8 -3 -4 -16 44
-107 69 -130 14 -13 22 -26 19 -29 -10 -10 53 -85 65 -78 6 4 7 -11 2 -41 l-7
-48 42 7 c37 6 41 4 41 -14 0 -28 18 -56 63 -101 21 -21 36 -42 34 -47 -3 -4
10 -26 28 -47 l34 -40 1 28 c0 16 4 26 10 22 6 -3 10 -21 10 -40 0 -47 19 -83
44 -87 17 -2 21 -11 23 -43 2 -31 0 -35 -7 -20 -6 13 -9 15 -9 5 0 -8 4 -22 9
-30 9 -13 10 -13 10 0 1 25 19 -10 21 -40 1 -15 5 -7 10 20 4 25 8 204 8 397
l1 353 243 293 c133 161 291 352 351 425 60 73 111 132 115 132 3 0 94 -107
201 -237 107 -130 262 -318 344 -417 82 -100 152 -181 157 -181 5 0 162 187
350 415 187 228 342 416 344 418 1 2 161 -189 354 -423 l351 -427 0 -839 c0
-461 -2 -839 -4 -839 -2 0 -30 33 -62 72 -70 87 -273 334 -388 473 -45 55
-113 138 -151 185 -37 47 -73 91 -80 98 -10 11 -32 -11 -116 -113 -57 -70
-189 -232 -294 -359 -104 -127 -212 -259 -240 -294 -27 -34 -57 -62 -66 -62
-8 0 -30 19 -47 43 -17 23 -44 56 -59 73 -15 18 -62 73 -103 124 -41 51 -142
174 -225 274 -82 100 -174 212 -204 250 l-54 68 -25 -29 c-14 -15 -34 -38 -44
-49 -11 -12 -21 -30 -23 -40 -1 -11 -8 -18 -14 -17 -14 4 -162 -188 -154 -200
3 -6 2 -7 -3 -4 -10 6 -57 -46 -54 -59 1 -4 -4 -11 -12 -15 -10 -7 -10 -9 0
-9 7 0 10 -4 7 -10 -3 -5 3 -17 15 -27 11 -10 20 -24 20 -31 0 -20 70 -103 81
-96 5 3 9 2 7 -3 -4 -19 37 -83 54 -83 11 0 18 -7 18 -18 0 -10 10 -26 22 -36
20 -18 21 -20 4 -26 -14 -5 -4 -20 58 -85 42 -43 76 -87 76 -97 0 -10 7 -21
15 -24 8 -3 17 -14 20 -25 4 -10 20 -32 37 -49 17 -17 28 -34 24 -37 -3 -3 8
-23 24 -43 16 -20 27 -40 23 -43 -3 -3 -2 -14 2 -24 7 -17 8 -17 15 2 7 18 9
16 26 -17 11 -23 25 -38 36 -38 10 0 18 -7 18 -15 0 -22 21 -55 53 -84 15 -14
27 -32 27 -39 0 -20 71 -103 81 -96 5 3 9 2 8 -3 -4 -16 44 -107 68 -129 14
-13 23 -27 20 -31 -3 -5 7 -22 21 -40 l27 -31 525 -5 c289 -3 580 -1 648 4
533 37 957 414 1063 947 16 79 25 2066 10 2247 -25 295 -134 537 -331 735
-173 174 -382 282 -627 325 -121 21 -2236 20 -2353 -1z m-240 -2405 c0 -10 -4
-19 -10 -19 -5 0 -10 12 -10 26 0 14 4 23 10 19 6 -3 10 -15 10 -26z m436
-554 c-1 -9 -6 -15 -12 -15 -9 0 -13 19 -6 33 6 12 20 -2 18 -18z"/>
<path d="M382 3060 c0 -14 2 -19 5 -12 2 6 2 18 0 25 -3 6 -5 1 -5 -13z"/>
<path d="M968 2273 c7 -3 16 -2 19 1 4 3 -2 6 -13 5 -11 0 -14 -3 -6 -6z"/>
<path d="M1072 2090 c0 -19 2 -27 5 -17 2 9 2 25 0 35 -3 9 -5 1 -5 -18z"/>
<path d="M1071 2024 c0 -11 3 -14 6 -6 3 7 2 16 -1 19 -3 4 -6 -2 -5 -13z"/>
<path d="M1419 1603 c-13 -16 -12 -17 4 -4 9 7 17 15 17 17 0 8 -8 3 -21 -13z"/>
<path d="M1380 1555 c-13 -14 -21 -25 -17 -25 3 0 17 11 31 25 14 14 22 25 17
25 -4 0 -18 -11 -31 -25z"/>
<path d="M1421 1544 c0 -11 3 -14 6 -6 3 7 2 16 -1 19 -3 4 -6 -2 -5 -13z"/>
<path d="M1608 1393 c7 -3 16 -2 19 1 4 3 -2 6 -13 5 -11 0 -14 -3 -6 -6z"/>
<path d="M1671 1334 c0 -11 3 -14 6 -6 3 7 2 16 -1 19 -3 4 -6 -2 -5 -13z"/>
<path d="M2008 833 c7 -3 16 -2 19 1 4 3 -2 6 -13 5 -11 0 -14 -3 -6 -6z"/>
<path d="M2071 774 c0 -11 3 -14 6 -6 3 7 2 16 -1 19 -3 4 -6 -2 -5 -13z"/>
</g>
</svg>
